# xmcd CD database file
#
# Track frame offsets:
#	150
#	16292
#	32877
#	47925
#	63297
#	80182
#	96002
#	110490
#	127587
#	143697
#	157795
#	174075
#	188397
#	199710
#	214635
#	232230
#	246322
#	262460
#	277057
#	293470
#	307557
#
# Disc length: 4284 seconds
#
# Revision: 0
# Processed by: cddbd v1.5.2PL0 Copyright (c) Steve Scherf et al.
# Submitted via: CDex 1.70beta2
#
DISCID=1e10ba15
DTITLE=Jones Country - Jones Country JCY-001
DYEAR=0000
DGENRE=Country
TTITLE0=Trace Adkins/There's A Girl In Texas
TTITLE1=Alabama/It Works
TTITLE2=James Bonamy/She's Got A Mind Of Her Own
TTITLE3=Trace Byrd/Walking To Jerusalem
TTITLE4=Mary-Chapin Carpenter/House Of Cards
TTITLE5=Billy Dean/I Wanna Take Care Of You (Radio Edit)
TTITLE6=Joe Diffie/This Is Your Brain (Radio Edit)
TTITLE7=Ty Herndon/She Wants To Be Wanted Again
TTITLE8=Waylon Jennings/Rose In Paradise
TTITLE9=Patty Loveless/High On Love
TTITLE10=Martina McBride/Phones Are Ringin' All Over Town
TTITLE11=Reba McEntire/Walk On
TTITLE12=John Michael Montgomery/Hello LOVE
TTITLE13=Montgomery Gentry/Hilbilly Shoes
TTITLE14=Nitty Gritty Dirt Band/Workin' Man (Nowhere To Go)
TTITLE15=Restless Heart/'Til I Loved You
TTITLE16=Sawyer Brown/'Round Here
TTITLE17=Shenandoah/Janie Baker
TTITLE18=Ricky Skaggs/Love's Gonna Get You Someday
TTITLE19=Sons Of The Desert/Whatever Comes First (Radio Edit)
TTITLE20=Marty Stuart and Travis Tritt/Honky Tonkin's What I Do Best
EXTD=YEAR: 0000
EXTT0=
EXTT1=
EXTT2=
EXTT3=
EXTT4=
EXTT5=
EXTT6=
EXTT7=
EXTT8=
EXTT9=
EXTT10=
EXTT11=
EXTT12=
EXTT13=
EXTT14=
EXTT15=
EXTT16=
EXTT17=
EXTT18=
EXTT19=
EXTT20=
PLAYORDER=
